<svg width="65" height="65" viewBox="0 0 2522 2469" fill="none" xmlns="http://www.w3.org/2000/svg">
<mask id="mask0_220:1026" style="mask-type:alpha" maskUnits="userSpaceOnUse" x="0" y="0" width="65" height="65">
<ellipse cx="65" cy="1234.5" rx="65" ry="1234.5"/>
</mask>
<g mask="url(#mask0_220:1026)">
<path d="M1204.5 2883C403.836 2883 -244 2234.2 -244 1434.5C-244 633.836 404.797 -14 1204.5 -14C2005.16 -14 2653 634.797 2653 1434.5C2653.96 2235.16 2005.16 2883 1204.5 2883Z" fill="#F4DA92"/>
<path d="M1907.43 2267.33C1901.95 2271.25 1895.68 2275.17 1890.19 2279.09C1883.92 2283 1878.43 2286.92 1872.17 2290.05C1866.68 2293.19 1861.98 2296.32 1856.49 2299.46C1855.71 2300.24 1854.92 2300.24 1854.14 2301.02C1836.12 2311.99 1817.31 2322.18 1798.5 2331.58C1793.01 2334.72 1786.74 2337.85 1781.26 2340.2C1781.26 2340.2 1780.47 2340.98 1779.69 2340.98C1773.42 2344.12 1767.15 2347.25 1760.88 2350.39C1748.34 2356.66 1735.02 2362.14 1722.48 2367.63C1716.21 2370.76 1709.16 2373.11 1702.89 2375.46C1696.62 2377.81 1689.56 2380.95 1683.29 2383.3C1677.03 2385.65 1669.97 2388.78 1663.7 2391.13C1663.7 2391.13 1663.7 2391.13 1662.92 2391.13C1656.65 2393.48 1649.6 2395.83 1643.33 2398.18C1629.22 2402.88 1614.33 2407.59 1600.22 2412.29C1595.52 2413.85 1590.03 2415.42 1585.33 2416.99C1570.44 2421.69 1555.55 2425.61 1540.66 2428.74C1535.18 2430.31 1529.69 2431.09 1523.42 2432.66C1509.31 2435.79 1494.42 2438.93 1480.32 2442.06C1477.18 2442.84 1474.83 2442.84 1471.7 2443.63C1466.99 2444.41 1461.51 2445.2 1456.81 2445.98C1449.75 2446.76 1443.48 2448.33 1436.43 2449.11C1433.3 2449.9 1430.16 2449.9 1427.03 2450.68C1423.11 2451.46 1418.41 2452.25 1413.7 2452.25C1401.16 2453.81 1387.84 2455.38 1375.3 2456.95C1371.38 2457.73 1366.68 2457.73 1362.76 2458.52H1361.98C1356.49 2459.3 1351.01 2459.3 1345.52 2460.08C1340.04 2460.87 1334.55 2460.87 1329.06 2460.87C1325.93 2460.87 1322.01 2461.65 1318.88 2461.65C1312.61 2461.65 1307.12 2462.43 1301.63 2462.43C1293.8 2462.43 1286.74 2463.22 1278.91 2463.22C1271.07 2463.22 1264.02 2463.22 1256.18 2463.22C1250.69 2463.22 1245.21 2463.22 1239.72 2463.22C909.787 2458.52 611.983 2318.26 400.385 2095.74C400.385 2095.74 400.385 2094.95 399.601 2094.95C423.896 2047.16 514.021 1960.97 608.064 1889.67C727.186 1799.56 895.681 1743.93 895.681 1743.93C895.681 1743.93 1006.18 1725.91 1416.05 1811.31C1728.75 1877.13 1861.98 2144.32 1907.43 2267.33Z" fill="#AD827B"/>
<path d="M1503.04 2028.35C1486.59 2109.06 1380 2156.85 1200.54 2084.77C980.319 1995.44 895.679 1743.93 895.679 1743.93C883.924 1563.71 856.495 1409.36 856.495 1409.36C1111.2 1387.42 1412.13 1685.16 1412.13 1685.16L1446.62 1832.47C1449.75 1845 1456.02 1855.97 1465.43 1863.81C1481.88 1892.02 1514.02 1976.64 1503.04 2028.35Z" fill="#AD827B"/>
<path d="M1465.43 1864.59C1315.74 1856.76 1205.24 1834.82 1086.9 1622.48C1187.22 1711.02 1305.55 1744.71 1430.16 1760.38L1446.62 1832.47C1449.76 1845.79 1456.02 1856.76 1465.43 1864.59Z" fill="#8E5650"/>
<path d="M1774.99 920.428C1789.09 986.245 1796.15 1039.53 1757.75 1215.04C1719.34 1390.55 1793.01 1566.06 1608.06 1726.69C1483.45 1834.82 1265.58 1855.19 1091.6 1736.88C1032.83 1696.91 978.752 1641.28 934.865 1568.41C900.383 1511.22 860.414 1457.15 815.744 1407.79C753.832 1340.4 679.381 1204.85 716.214 965.089C775.775 574.887 1162.14 530.225 1390.19 573.32C1618.25 616.414 1736.59 746.482 1774.99 920.428Z" fill="#AD827B"/>
<path d="M1024.99 1226.79C1024.99 1226.79 1000.7 1109.26 886.278 1123.36C787.532 1135.9 753.049 1372.53 977.186 1438.35" fill="#AD827B"/>
<path d="M970.131 1331C970.131 1331 941.918 1312.98 945.053 1281.64C949.755 1244.81 945.053 1222.09 927.811 1215.04C884.708 1197.02 876.087 1247.16 877.655 1253.43" stroke="#423232" stroke-width="3" stroke-miterlimit="10" stroke-linecap="round" stroke-linejoin="round"/>
<path d="M1568.09 1407C1568.09 1407 1597.87 1408.57 1626.09 1374.88C1641.76 1356.07 1655.08 1332.57 1646.46 1325.52C1637.84 1317.68 1495.99 1339.62 1486.59 1358.43C1477.18 1377.23 1532.04 1407 1568.09 1407Z" fill="#8E605C"/>
<path d="M1591.6 1143.74C1591.6 1143.74 1593.17 1218.17 1640.98 1301.23C1662.14 1338.05 1630 1398.39 1560.26 1408.57" stroke="#423232" stroke-width="3" stroke-miterlimit="10" stroke-linecap="round" stroke-linejoin="round"/>
<path d="M1311.05 1229.59C1290.59 1228.74 1275.24 1211.67 1276.95 1191.18L1277.8 1167.29C1278.65 1146.8 1295.71 1131.44 1316.17 1133.15C1336.63 1134 1351.97 1151.07 1350.27 1171.55L1349.42 1195.45C1348.56 1215.08 1331.51 1230.44 1311.05 1229.59Z" fill="#423232"/>
<path d="M1669.98 1242.39C1651.23 1241.54 1636.73 1225.32 1637.58 1206.55L1638.44 1184.36C1639.29 1165.58 1655.49 1151.07 1674.24 1151.92C1693 1152.78 1707.49 1168.99 1706.64 1187.77L1705.79 1209.96C1704.94 1228.74 1688.74 1243.25 1669.98 1242.39Z" fill="#423232"/>
<path d="M1393.75 1180.09C1393.75 1180.09 1371.58 1148.51 1333.22 1142.54C1301.67 1137.41 1266.72 1152.78 1261.6 1170.7" stroke="#423232" stroke-width="3" stroke-miterlimit="10" stroke-linecap="round" stroke-linejoin="round"/>
<path d="M1645.26 1187.77C1645.26 1187.77 1645.26 1160.46 1684.48 1160.46C1716.87 1160.46 1730.51 1190.33 1730.51 1190.33" stroke="#423232" stroke-width="3" stroke-miterlimit="10" stroke-linecap="round" stroke-linejoin="round"/>
<path d="M1428.7 1042.68C1446.61 1048.65 1464.51 1032.44 1461.1 1012.81C1459.4 1002.56 1455.13 992.321 1446.61 984.64C1421.03 961.596 1315.31 941.112 1251.37 970.984C1195.1 998.296 1346.86 1015.37 1428.7 1042.68Z" fill="#423232"/>
<path d="M1683.62 1056.33C1669.13 1061.45 1653.78 1046.09 1656.34 1028.17C1657.19 1018.78 1660.6 1009.39 1667.42 1002.56C1687.88 982.08 1757.79 965.863 1802.13 997.442C1840.49 1023.9 1750.12 1031.58 1683.62 1056.33Z" fill="#423232"/>
<path d="M1768.65 966.079C1767.11 956.832 1764.8 947.585 1763.26 937.568C1754.78 899.811 1742.45 864.365 1726.28 831.231L1635.37 868.988C1609.18 879.776 1579.9 882.859 1551.4 878.235L1190.85 815.82C1146.94 808.115 1104.56 833.543 1089.93 875.153C1079.14 905.205 1066.04 939.88 1052.18 969.161C942.779 986.883 836.464 963.767 735.542 920.616C727.838 917.534 720.904 914.451 713.2 910.599C727.067 840.478 673.91 547.667 740.164 471.382C762.506 445.954 784.847 442.871 806.419 450.577C856.495 468.3 912.734 458.282 948.943 419.755C978.218 389.703 1015.2 363.504 1060.65 362.733C1082.99 361.963 1100.71 366.586 1115.35 375.062C1161.57 400.491 1217.81 392.015 1259.41 360.422C1272.51 351.175 1286.38 345.011 1301.79 345.011C1324.13 345.011 1344.16 354.257 1360.34 366.586C1391.15 389.703 1431.98 395.097 1469.73 387.391C1472.04 386.621 1474.36 386.621 1476.67 386.621C1485.91 386.621 1495.93 388.932 1504.4 392.785C1536.76 406.655 1572.97 408.196 1605.32 394.326C1620.73 388.162 1639.22 388.162 1657.71 405.885C1680.82 428.231 1710.87 442.871 1743.23 443.642C1751.7 443.642 1762.48 447.495 1775.58 455.971C1781.74 460.594 1787.14 469.07 1790.99 480.629C1797.15 498.351 1811.79 511.451 1830.28 516.845C1841.84 520.697 1850.31 532.256 1852.62 558.455C1860.33 641.675 1787.91 899.04 1768.65 966.079Z" fill="#423232"/>
<path d="M1828.74 516.074C1794.84 528.403 1788.68 521.468 1750.16 511.451C1711.64 501.433 1677.74 544.585 1650 499.892C1609.94 434.395 1535.98 479.087 1521.35 466.758C1506.71 454.43 1461.26 413.59 1397.31 456.741C1354.94 485.252 1301.01 434.395 1233.22 434.395C1097.63 434.395 1072.97 533.797 1025.98 488.334C978.986 443.642 928.91 473.693 859.574 486.022C790.238 498.351 754.799 456.741 754.799 456.741C771.748 445.183 788.697 445.183 804.875 450.577C854.951 468.3 911.191 458.282 947.399 419.755C976.675 389.703 1013.65 363.504 1059.11 362.733C1081.45 361.963 1099.17 366.586 1113.81 375.062C1160.03 400.491 1216.27 392.015 1257.87 360.422C1270.97 351.175 1284.83 345.011 1300.24 345.011C1322.58 345.011 1342.61 354.257 1358.79 366.586C1389.61 389.703 1430.44 395.097 1468.19 387.391C1470.5 386.621 1472.81 386.621 1475.12 386.621C1484.37 386.621 1494.38 388.932 1502.86 392.785C1535.21 406.655 1571.42 408.196 1603.78 394.326C1619.19 388.162 1637.68 388.162 1656.17 405.885C1679.28 428.231 1709.32 442.871 1741.68 443.642C1750.16 443.642 1760.94 447.495 1774.04 455.971C1780.2 460.594 1785.59 469.07 1789.45 480.628C1795.61 497.581 1811.02 510.68 1828.74 516.074Z" fill="#5E4949"/>
<path d="M1019.82 1218.82C1006.72 1186.46 972.055 1127.12 890.393 1137.91C808.73 1147.93 771.751 1313.6 891.934 1404.52C926.602 1429.95 962.81 1442.28 962.81 1442.28L869.592 1474.65C869.592 1474.65 700.104 1378.33 693.941 1157.95C690.859 1055.46 701.645 972.243 713.201 911.369C820.286 960.685 934.305 989.195 1052.18 969.931C1039.08 996.901 1024.44 1019.25 1010.58 1030.03C968.203 1060.86 1025.21 1143.31 1019.82 1218.82Z" fill="#99807F"/>
<path d="M1021.36 1019.25C1017.51 1023.1 1014.43 1026.95 1010.57 1029.26C1001.33 1036.2 996.707 1046.22 995.167 1057.77C947.402 1060.09 878.836 1040.05 854.954 1032.35C849.561 1030.81 846.479 1026.18 846.479 1020.79V1016.94C846.479 1008.46 854.183 1003.07 861.887 1004.61C915.045 1019.25 1017.51 1019.25 1021.36 1019.25Z" fill="#423232"/>
<path d="M1005.18 1122.5C962.807 1119.42 921.976 1111.71 903.487 1107.86C897.323 1106.32 893.471 1101.7 893.471 1095.53C893.471 1087.83 900.405 1082.43 908.109 1083.2C942.777 1088.6 979.756 1087.83 997.475 1087.06C999.016 1097.84 1002.1 1109.4 1005.18 1122.5Z" fill="#423232"/>
<path d="M639 1866.5L551 1936L639 1883.5V1866.5Z" fill="#6060D8" stroke="#6060D8"/>
<path d="M1402.91 1313.27H1212.35C1162.46 1313.27 1122.39 1273.18 1122.39 1223.27V1145.55C1122.39 1095.64 1162.46 1055.55 1212.35 1055.55H1402.91C1452.8 1055.55 1492.88 1095.64 1492.88 1145.55V1223.27C1492.88 1273.18 1451.98 1313.27 1402.91 1313.27Z" stroke="#423232" stroke-width="3" stroke-miterlimit="10" stroke-linecap="round" stroke-linejoin="round"/>
<path d="M1731.69 1055.55H1637.63C1604.92 1055.55 1577.93 1082.55 1577.93 1115.27V1186.45C1589.38 1227.36 1605.74 1266.64 1630.27 1301.82C1632.73 1301.82 1635.18 1302.64 1637.63 1302.64H1731.69C1764.4 1302.64 1791.39 1275.64 1791.39 1242.91V1115.27C1792.21 1081.73 1765.22 1055.55 1731.69 1055.55Z" stroke="#423232" stroke-width="3" stroke-miterlimit="10" stroke-linecap="round" stroke-linejoin="round"/>
<path d="M1492.88 1130C1520.68 1126.73 1555.85 1124.27 1585.29 1127.55" stroke="#423232" stroke-width="3" stroke-miterlimit="10" stroke-linecap="round" stroke-linejoin="round"/>
<path d="M1122.39 1135.73L932.643 1142.27" stroke="#423232" stroke-width="3" stroke-miterlimit="10" stroke-linecap="round" stroke-linejoin="round"/>
<path d="M1539 1594.34C1483.11 1627.4 1384.08 1591.42 1338 1536" stroke="#423232" stroke-width="3" stroke-miterlimit="10" stroke-linecap="round" stroke-linejoin="round"/>
<path d="M1812.86 1989.4C1720.4 1884.28 1578.55 1841.81 1500.51 1816.59C1493.75 1787.66 1481.17 1755.89 1461.55 1725.36C1432.18 1741.95 1398.26 1754.52 1363 1761.31L1368.36 1780.4C1371.04 1789.65 1384.38 1832.43 1365.09 1887.78C1348.92 1934.38 1281.7 1956.04 1166.79 1910.36C942.801 1821.84 915.923 1719.44 915.923 1719.44C911.428 1663.79 904.404 1611.65 898.135 1569.36C828.905 1584.08 748.919 1613.43 705.915 1673.69C652.784 1747.41 633.719 1821.9 639.538 1881.02C546.352 1936.05 402.086 2019.52 356.22 2166.27C296.724 2357.28 308.343 2473.77 308.343 2473.77L1968.56 2454.71C1966.64 2455.32 1938.52 2132.44 1812.86 1989.4Z" fill="#6060D8"/>
<path d="M818.008 1810.5C818.008 1810.5 858.779 1947.55 1031.42 2040.73" stroke="#423232" stroke-width="3" stroke-miterlimit="10" stroke-linecap="round" stroke-linejoin="round"/>
<path d="M1499.86 1816.6C1499.86 1816.6 1547.52 1994.19 1448.88 2077.14" stroke="#423232" stroke-width="3" stroke-miterlimit="10" stroke-linecap="round" stroke-linejoin="round"/>
<path d="M1192.84 2052.81C1192.84 2052.81 1160.45 2141.37 1170.14 2202.19" stroke="#423232" stroke-width="3" stroke-miterlimit="10" stroke-linecap="round" stroke-linejoin="round"/>
<path d="M1397.74 2045.23C1397.74 2045.23 1423.37 2094.26 1442.26 2172.37" stroke="#423232" stroke-width="3" stroke-miterlimit="10" stroke-linecap="round" stroke-linejoin="round"/>
<path d="M638.26 1881.62C638.26 1881.62 693.169 2074.79 1007.36 2128.05" stroke="#423232" stroke-width="3" stroke-miterlimit="10" stroke-linecap="round" stroke-linejoin="round"/>
<path d="M1176.08 2215.47L1147.78 2213.47C1137.49 2212.43 1129.68 2203.81 1131.5 2194.51L1140.64 2150.89C1143.07 2138.67 1155.82 2129.82 1169.33 2131.41C1182.84 2132.41 1193.88 2142.73 1194.02 2155.5L1195.18 2200.16C1195.28 2208.86 1186.37 2216.51 1176.08 2215.47Z" fill="white"/>
<path d="M1470.68 2185.39L1443.8 2194.41C1433.56 2198 1422.57 2192.33 1420.53 2183.07L1408.47 2140.27C1405.12 2128.12 1412.05 2115.86 1425.49 2111.06C1438.29 2106.85 1453.13 2111.9 1459.04 2122.86L1480.7 2162.65C1485.3 2171.3 1480.92 2181.79 1470.68 2185.39Z" fill="white"/>
<path d="M623.171 2470.74C623.171 2470.74 615.903 2341.43 596.228 2306.84" stroke="#544D4D" stroke-width="3" stroke-miterlimit="10" stroke-linecap="round" stroke-linejoin="round"/>
<path d="M1753.87 2168.8C1753.87 2168.8 1791.94 2350.56 1779.03 2457.47" stroke="#544D4D" stroke-width="3" stroke-miterlimit="10" stroke-linecap="round" stroke-linejoin="round"/>
<path d="M1652.44 2345.19C1652.44 2345.19 1557.49 2359.05 1473.93 2356.53" stroke="#544D4D" stroke-width="3" stroke-miterlimit="10" stroke-linecap="round" stroke-linejoin="round"/>
<path d="M1339.2 1764.9C1343.65 1757.35 1350.87 1751.82 1359.32 1749.5L1467.3 1719.81C1479.95 1716.33 1493.49 1720.37 1502.17 1730.22L1504.4 1732.75C1514.8 1744.54 1515.86 1761.89 1506.97 1774.87L1501.93 1782.23C1496.72 1789.85 1488.65 1795.05 1479.56 1796.66L1374.13 1815.27C1345.76 1820.27 1324.57 1789.72 1339.2 1764.9V1764.9Z" fill="#AD827B"/>
</g>
</svg>
