<?xml version="1.0" encoding="UTF-8"?>
<svg width="210mm" height="119.94mm" version="1.1" viewBox="0 0 744.09449 424.99999" xmlns="http://www.w3.org/2000/svg">
 <defs>
  <linearGradient id="d" x1="351" x2="350.09" y1="704.36" y2="999.14" gradientTransform="matrix(1 0 0 1.2213 0 -232.85)" gradientUnits="userSpaceOnUse">
   <stop stop-color="#d0200d" offset="0"/>
   <stop stop-color="#d0af0d" offset="1"/>
  </linearGradient>
  <filter id="c" x="-.1584" y="-.1584" width="1.3168" height="1.3168" color-interpolation-filters="sRGB">
   <feGaussianBlur stdDeviation="11.88"/>
  </filter>
 </defs>
 <g transform="translate(0 -627.36)">
  <rect y="627.36" width="744.09" height="425" fill="url(#d)"/>
  <g transform="matrix(.35911 0 0 .35911 4.6116 577.05)">
   <path d="m341.58 561.1-32.03 40.327 4.7826-18.197-26.635 26.361 9.4695-25.306-34.83 28.976 10.524-22.958-35.885 26.628 12.029-19.96-37.39 23.631 12.029-19.96-37.39 23.631 12.029-19.96-37.39 23.631 12.029-19.96-37.39 23.631 12.029-19.96-37.39 23.631c55.34-72.856 146.61-61.913 231.41-74.187z" fill="#1a1a1a"/>
   <path d="m350.84 562.94 16.264 48.864 1.7456-18.734 15.984 33.895-0.22017-27.018 22.786 39.161-2.0156-25.174 24.581 37.317-4.4574-22.875 27.023 35.017-4.4574-22.875 27.023 35.017-4.4574-22.875 27.023 35.017-4.4574-22.875 27.023 35.017-4.4574-22.875 27.023 35.017c-27.009-87.412-116.5-108.42-191.95-149.02z" fill="#1a1a1a"/>
   <path d="m352.71 565.94-11.542 50.189-3.5196-18.483-12.687 35.262-2.3508-26.917-18.957 41.151-0.3881-25.252-20.92 39.486 2.2614-23.195-23.569 37.429 2.2614-23.195-23.569 37.429 2.2614-23.195-23.569 37.429 2.2614-23.195-23.569 37.429 2.2614-23.195-23.569 37.429c18.572-89.585 105.66-119.02 176.91-166.61z" fill="#1a1a1a"/>
   <path d="m347.05 563.28 51.497-0.45913-17.291-7.4187 37.167-4.7927-25.778-8.0943 44.269-9.6469-24.575-5.819 43.065-11.922-23.138-2.7886 41.628-14.953-23.138-2.7886 41.628-14.953-23.138-2.7886 41.628-14.953-23.138-2.7886 41.628-14.953-23.138-2.7886 41.628-14.953c-91.483-1.1634-138.98 77.542-200.81 136.86z" fill="#1a1a1a"/>
   <path d="m351.09 558.31 41.565 30.406-9.4303-16.281 32.664 18.368-15.832-21.895 41.26 18.719-16.227-19.352 41.655 16.176-16.885-16.063 42.313 12.887-16.885-16.063 42.313 12.887-16.885-16.063 42.313 12.887-16.885-16.063 42.313 12.887-16.885-16.063 42.313 12.887c-72.656-55.602-157.78-20.882-242.79-10.264z" fill="#1a1a1a"/>
   <path d="m369.56 568.15-47.37 20.205 12.872-13.723-35.975 10.495 20.378-17.742-44.427 8.8916 20.187-15.175-44.235 6.3248 20.084-11.822-44.132 2.9723 20.084-11.822-44.132 2.9723 20.084-11.822-44.132 2.9723 20.084-11.822-44.132 2.9723 20.084-11.822-44.132 2.9723c83.358-37.708 158.41 15.383 238.81 44.973z" fill="#1a1a1a"/>
   <path d="m361.72 567.63-44.439-26.026 18.689 2.1698-29.853-22.653 26.388 5.8078-33.597-30.398 24.212 7.1826-31.421-31.773 21.457 9.0956-28.666-33.686 21.457 9.0956-28.666-33.686 21.457 9.0956-28.666-33.686 21.457 9.0956-28.666-33.686 21.457 9.0956-28.666-33.686c79.929 44.517 81.962 136.42 106.07 218.64z" fill="#1a1a1a"/>
   <path d="m369.75 558.87-51.204 5.5082 16.315-9.3714-37.472-0.45587 24.667-11.025-45.088-4.455 23.736-8.626-44.156-6.8543 22.659-5.4496-43.079-10.031 22.659-5.4496-43.079-10.031 22.659-5.4496-43.079-10.031 22.659-5.4496-43.079-10.031 22.659-5.4496-43.079-10.031c90.732-11.751 147.03 60.923 215.3 112.68z" fill="#1a1a1a"/>
   <path d="m348.65 564.63 44.439-26.026-18.689 2.1698 29.853-22.653-26.388 5.8078 33.597-30.398-24.212 7.1826 31.421-31.773-21.457 9.0956 28.666-33.686-21.457 9.0956 28.666-33.686-21.457 9.0956 28.666-33.686-21.457 9.0956 28.666-33.686-21.457 9.0956 28.666-33.686c-79.929 44.517-81.962 136.42-106.07 218.64z" fill="#1a1a1a"/>
   <path d="m347.9 574.36c-11.095 161.63-105.41 297.27-164.05 434.16h25.456c44.632-145.96 105.41-192.32 148.49-438.41z" fill-rule="evenodd"/>
  </g>
  <g transform="translate(-199,-56)">
   <path d="m391 931.47-8.4965 16.426 0.42624-6.7431-7.5616 11.132 1.5859-9.5723-10.269 12.621 2.1199-8.8179-10.802 11.866 2.8578-7.8659-11.54 10.914 2.8578-7.8659-11.54 10.914 2.8578-7.8659-11.54 10.914 2.8578-7.8659-11.54 10.914 2.8578-7.8659-11.54 10.914c14.46-29.502 47.38-31.961 76.41-42.153z" fill="#1a1a1a"/>
   <path d="m388.51 930.09 9.112 16.093-0.68109-6.7222 7.9775 10.838-1.947-9.5055 10.739 12.223-2.4521-8.7314 11.244 11.449-3.1534-7.7521 11.945 10.47-3.1534-7.7521 11.945 10.47-3.1534-7.7521 11.945 10.47-3.1534-7.7521 11.945 10.47-3.1534-7.7521 11.945 10.47c-15.566-28.933-48.555-30.146-77.95-39.232z" fill="#1a1a1a"/>
   <path d="m387.2 930.47 18.115-3.7249-6.6061-1.4179 12.765-4.2604-9.6438-1.0686 14.932-6.4623-9.0624-0.35011 14.35-7.1809-8.3461 0.61824 13.634-8.1492-8.3461 0.61825 13.634-8.1492-8.3461 0.61826 13.634-8.1492-8.3461 0.61826 13.634-8.1492-8.3461 0.61826 13.634-8.1492c-32.317 5.9198-43.61 36.94-61.29 62.12z" fill="#1a1a1a"/>
   <path d="m388.28 928.44 16.75 7.8385-4.4495-5.0846 12.781 4.2123-7.0938-6.6198 15.834 3.7416-7.057-5.6963 15.797 2.818-7.0614-4.4918 15.802 1.6135-7.0614-4.4918 15.802 1.6135-7.0614-4.4918 15.802 1.6135-7.0614-4.4918 15.802 1.6135-7.0614-4.4918 15.802 1.6135c-29.449-14.566-57.041 3.5584-86.265 13.182z" fill="#1a1a1a"/>
   <path d="m395.47 930.63-15.294 10.398 3.5862-5.7263-11.951 6.1873 5.9533-7.6618-15.04 6.2071 6.0636-6.7441-15.15 5.2894 6.259-5.5556-15.345 4.1009 6.259-5.5556-15.345 4.1009 6.259-5.5556-15.345 4.1009 6.259-5.5556-15.345 4.1009 6.259-5.5556-15.345 4.1009c26.765-19.055 56.883-5.5395 87.263-0.67577z" fill="#1a1a1a"/>
   <path d="m392.67 930.99-17.46-6.0962 6.7358-0.52852-12.087-5.917 9.7003 0.22077-13.942-8.387 9.0287 0.85578-13.27-9.022 8.1902 1.7205-12.432-9.8867 8.1902 1.7205-12.432-9.8867 8.1902 1.7205-12.432-9.8867 8.1902 1.7205-12.432-9.8867 8.1902 1.7205-12.432-9.8867c31.245 10.157 38.321 42.402 52.503 69.705z" fill="#1a1a1a"/>
   <path d="m394.89 927.34-17.662 5.4838 5.1006-4.4311-13.236 2.432 7.9294-5.5919-16.196 1.5498 7.7672-4.6819-16.034 0.63988 7.6074-3.4881-15.874-0.55396 7.6074-3.4881-15.874-0.55396 7.6074-3.4881-15.874-0.55395 7.6074-3.4881-15.874-0.55395 7.6074-3.4881-15.874-0.55395c31.159-10.419 56.025 11.295 83.665 24.81z" fill="#1a1a1a"/>
   <path d="m387.85 930.83 13.859-12.246-6.4356 2.0577 8.952-10.048-8.8966 3.8723 9.7355-13.036-8.0347 4.2062 8.8736-13.37-6.9316 4.6897 7.7705-13.853-6.9315 4.6897 7.7705-13.853-6.9315 4.6897 7.7705-13.854-6.9315 4.6897 7.7704-13.853-6.9315 4.6897 7.7704-13.853c-25.085 21.217-19.443 53.744-22.247 84.382z" fill="#1a1a1a"/>
   <path d="m391.04 927.8c-41.484 78.542-130.35 40.252-151.41 89.411h14.141c11.049-30.148 98.201-19.318 137.82-82.435z" fill-rule="evenodd"/>
  </g>
  <circle transform="matrix(1.0768 0 0 1.0768 -28.097 -73.033)" cx="366" cy="951.36" r="90" fill="#f4d332" filter="url(#c)"/>
  <circle cx="366" cy="951.36" r="90" fill="#f4d332"/>
  <path d="m22 930.36-22 2.75v119.25h744.09v-80h-11.094l-16-8-15 2s-15 2-22 2-19-6-24-7-24 0-34 0-31 5-36 5h-23c-5 0-19-1-26-4s-20-8-24-8-16 4-16 4-13 10-18 10-19-1-23-1-26-8-26-8l-33-2-19-1s-29-5-35-9-15-4-15-4l-16 7-17-7s-13 2-17 5-14 0-18 0-10-1-10-1l-15-9h-8c-4 0-16 1-22 1s-16 0-23 2-17 5-23 6-11 4-16 5-39-13-39-13-19-2-26-2-19-7-19-7l-22 3-15-3z" fill="#1a1a1a" fill-rule="evenodd"/>
 </g>
</svg>
